<svg xmlns="http://www.w3.org/2000/svg" xmlns:xlink="http://www.w3.org/1999/xlink" width="2000" zoomAndPan="magnify" viewBox="0 0 1500 1499.999933" height="2000" preserveAspectRatio="xMidYMid meet" version="1.0"><defs><g/><clipPath id="d19a551539"><rect x="0" width="1357" y="0" height="383"/></clipPath><clipPath id="617983c221"><path d="M 513.582031 761.917969 L 747.519531 761.917969 L 747.519531 995.855469 L 513.582031 995.855469 Z M 513.582031 761.917969 " clip-rule="nonzero"/></clipPath><clipPath id="504757be8e"><path d="M 630.550781 761.917969 C 565.953125 761.917969 513.582031 814.285156 513.582031 878.886719 C 513.582031 943.484375 565.953125 995.855469 630.550781 995.855469 C 695.152344 995.855469 747.519531 943.484375 747.519531 878.886719 C 747.519531 814.285156 695.152344 761.917969 630.550781 761.917969 Z M 630.550781 761.917969 " clip-rule="nonzero"/></clipPath><clipPath id="06ae9fed26"><path d="M 0.582031 0.917969 L 234.519531 0.917969 L 234.519531 234.855469 L 0.582031 234.855469 Z M 0.582031 0.917969 " clip-rule="nonzero"/></clipPath><clipPath id="e01808d4f3"><path d="M 117.550781 0.917969 C 52.953125 0.917969 0.582031 53.285156 0.582031 117.886719 C 0.582031 182.484375 52.953125 234.855469 117.550781 234.855469 C 182.152344 234.855469 234.519531 182.484375 234.519531 117.886719 C 234.519531 53.285156 182.152344 0.917969 117.550781 0.917969 Z M 117.550781 0.917969 " clip-rule="nonzero"/></clipPath><clipPath id="48cf9551f7"><rect x="0" width="235" y="0" height="235"/></clipPath><clipPath id="9ba98714b7"><path d="M 545.742188 776.152344 L 713.742188 776.152344 L 713.742188 970.402344 L 545.742188 970.402344 Z M 545.742188 776.152344 " clip-rule="nonzero"/></clipPath><clipPath id="d6f75edbd5"><path d="M 579 535 L 961.3125 535 L 961.3125 742 L 579 742 Z M 579 535 " clip-rule="nonzero"/></clipPath><clipPath id="42da557c4f"><path d="M 500 367.335938 L 713 367.335938 L 713 758 L 500 758 Z M 500 367.335938 " clip-rule="nonzero"/></clipPath><clipPath id="fef46fbab1"><path d="M 75 43 L 124 43 L 124 121.71875 L 75 121.71875 Z M 75 43 " clip-rule="nonzero"/></clipPath><clipPath id="fc6f5d89bb"><path d="M 890 44 L 943 44 L 943 121.71875 L 890 121.71875 Z M 890 44 " clip-rule="nonzero"/></clipPath><clipPath id="461ac8920a"><rect x="0" width="1338" y="0" height="122"/></clipPath></defs><g transform="matrix(1, 0, 0, 1, 69, 675)"><g clip-path="url(#d19a551539)"><g fill="#007c3e" fill-opacity="1"><g transform="translate(0.79291, 318.133495)"><g><path d="M 193.828125 -199.28125 C 186.566406 -191.789062 177.9375 -182.082031 167.9375 -170.15625 C 157.945312 -158.226562 147.613281 -145.222656 136.9375 -131.140625 C 126.269531 -117.066406 115.710938 -102.535156 105.265625 -87.546875 C 94.816406 -72.554688 85.503906 -58.25 77.328125 -44.625 L 197.578125 -44.625 L 197.578125 0 L 11.921875 0 L 11.921875 -31.6875 C 18.285156 -43.257812 26.0625 -56.144531 35.25 -70.34375 C 44.445312 -84.539062 54.039062 -98.847656 64.03125 -113.265625 C 74.03125 -127.691406 84.195312 -141.660156 94.53125 -155.171875 C 104.863281 -168.679688 114.457031 -180.773438 123.3125 -191.453125 L 17.375 -191.453125 L 17.375 -236.078125 L 193.828125 -236.078125 Z M 193.828125 -199.28125 "/></g></g></g><g fill="#007c3e" fill-opacity="1"><g transform="translate(203.820469, 318.133495)"><g><path d="M 185.3125 0 C 182.8125 -8.175781 180.03125 -16.578125 176.96875 -25.203125 C 173.90625 -33.835938 170.894531 -42.46875 167.9375 -51.09375 L 75.96875 -51.09375 C 73.007812 -42.46875 70 -33.835938 66.9375 -25.203125 C 63.875 -16.578125 61.09375 -8.175781 58.59375 0 L 3.40625 0 C 12.257812 -25.4375 20.660156 -48.941406 28.609375 -70.515625 C 36.554688 -92.085938 44.332031 -112.410156 51.9375 -131.484375 C 59.550781 -150.566406 67.046875 -168.679688 74.421875 -185.828125 C 81.804688 -202.972656 89.472656 -219.722656 97.421875 -236.078125 L 148.1875 -236.078125 C 155.90625 -219.722656 163.507812 -202.972656 171 -185.828125 C 178.5 -168.679688 186.050781 -150.566406 193.65625 -131.484375 C 201.269531 -112.410156 209.050781 -92.085938 217 -70.515625 C 224.945312 -48.941406 233.347656 -25.4375 242.203125 0 Z M 121.609375 -182.59375 C 120.472656 -179.1875 118.769531 -174.53125 116.5 -168.625 C 114.226562 -162.71875 111.613281 -155.90625 108.65625 -148.1875 C 105.707031 -140.46875 102.472656 -131.953125 98.953125 -122.640625 C 95.441406 -113.328125 91.867188 -103.5625 88.234375 -93.34375 L 155.34375 -93.34375 C 151.707031 -103.5625 148.1875 -113.328125 144.78125 -122.640625 C 141.375 -131.953125 138.132812 -140.46875 135.0625 -148.1875 C 132 -155.90625 129.332031 -162.71875 127.0625 -168.625 C 124.789062 -174.53125 122.972656 -179.1875 121.609375 -182.59375 Z M 121.609375 -182.59375 "/></g></g></g><g fill="#007c3e" fill-opacity="1"><g transform="translate(427.287017, 318.133495)"><g><path d="M 71.875 -118.203125 C 71.875 -106.617188 73.289062 -96.171875 76.125 -86.859375 C 78.96875 -77.554688 83.054688 -69.550781 88.390625 -62.84375 C 93.734375 -56.144531 100.265625 -50.976562 107.984375 -47.34375 C 115.710938 -43.71875 124.570312 -41.90625 134.5625 -41.90625 C 144.320312 -41.90625 153.117188 -43.71875 160.953125 -47.34375 C 168.796875 -50.976562 175.382812 -56.144531 180.71875 -62.84375 C 186.050781 -69.550781 190.132812 -77.554688 192.96875 -86.859375 C 195.8125 -96.171875 197.234375 -106.617188 197.234375 -118.203125 C 197.234375 -129.785156 195.8125 -140.289062 192.96875 -149.71875 C 190.132812 -159.144531 186.050781 -167.207031 180.71875 -173.90625 C 175.382812 -180.601562 168.796875 -185.769531 160.953125 -189.40625 C 153.117188 -193.039062 144.320312 -194.859375 134.5625 -194.859375 C 124.570312 -194.859375 115.710938 -192.984375 107.984375 -189.234375 C 100.265625 -185.484375 93.734375 -180.257812 88.390625 -173.5625 C 83.054688 -166.863281 78.96875 -158.800781 76.125 -149.375 C 73.289062 -139.945312 71.875 -129.554688 71.875 -118.203125 Z M 252.078125 -118.203125 C 252.078125 -97.992188 249.066406 -80.222656 243.046875 -64.890625 C 237.035156 -49.566406 228.804688 -36.738281 218.359375 -26.40625 C 207.910156 -16.070312 195.472656 -8.289062 181.046875 -3.0625 C 166.628906 2.15625 151.132812 4.765625 134.5625 4.765625 C 118.4375 4.765625 103.21875 2.15625 88.90625 -3.0625 C 74.601562 -8.289062 62.113281 -16.070312 51.4375 -26.40625 C 40.757812 -36.738281 32.351562 -49.566406 26.21875 -64.890625 C 20.09375 -80.222656 17.03125 -97.992188 17.03125 -118.203125 C 17.03125 -138.421875 20.207031 -156.191406 26.5625 -171.515625 C 32.925781 -186.847656 41.5 -199.738281 52.28125 -210.1875 C 63.070312 -220.632812 75.5625 -228.46875 89.75 -233.6875 C 103.945312 -238.914062 118.882812 -241.53125 134.5625 -241.53125 C 150.6875 -241.53125 165.898438 -238.914062 180.203125 -233.6875 C 194.515625 -228.46875 207.003906 -220.632812 217.671875 -210.1875 C 228.347656 -199.738281 236.75 -186.847656 242.875 -171.515625 C 249.007812 -156.191406 252.078125 -138.421875 252.078125 -118.203125 Z M 252.078125 -118.203125 "/></g></g></g><g fill="#007c3e" fill-opacity="1"><g transform="translate(682.774758, 318.133495)"><g><path d="M 185.65625 0 C 170.4375 -27.019531 153.96875 -53.703125 136.25 -80.046875 C 118.539062 -106.398438 99.695312 -131.269531 79.71875 -154.65625 L 79.71875 0 L 27.25 0 L 27.25 -236.078125 L 70.515625 -236.078125 C 78.003906 -228.578125 86.289062 -219.375 95.375 -208.46875 C 104.46875 -197.570312 113.722656 -185.9375 123.140625 -173.5625 C 132.566406 -161.1875 141.9375 -148.351562 151.25 -135.0625 C 160.5625 -121.78125 169.304688 -109.007812 177.484375 -96.75 L 177.484375 -236.078125 L 230.28125 -236.078125 L 230.28125 0 Z M 185.65625 0 "/></g></g></g><g fill="#007c3e" fill-opacity="1"><g transform="translate(926.680289, 318.133495)"><g><path d="M 27.25 0 L 27.25 -236.078125 L 186.671875 -236.078125 L 186.671875 -191.453125 L 80.390625 -191.453125 L 80.390625 -145.125 L 174.75 -145.125 L 174.75 -101.515625 L 80.390625 -101.515625 L 80.390625 -44.625 L 194.515625 -44.625 L 194.515625 0 Z M 27.25 0 "/></g></g></g><g fill="#007c3e" fill-opacity="1"><g transform="translate(1126.301419, 318.133495)"><g><path d="M 162.828125 0 C 156.242188 -13.175781 149.035156 -26.519531 141.203125 -40.03125 C 133.367188 -53.539062 124.34375 -67.335938 114.125 -81.421875 C 110.9375 -77.328125 106.898438 -71.644531 102.015625 -64.375 C 97.140625 -57.113281 92.257812 -49.394531 87.375 -41.21875 C 82.488281 -33.039062 77.890625 -25.203125 73.578125 -17.703125 C 69.265625 -10.210938 66.085938 -4.3125 64.046875 0 L 3.40625 0 C 13.394531 -18.394531 25.03125 -37.695312 38.3125 -57.90625 C 51.601562 -78.125 66.425781 -99.585938 82.78125 -122.296875 L 6.8125 -236.078125 L 71.203125 -236.078125 L 117.1875 -162.5 L 162.15625 -236.078125 L 222.796875 -236.078125 L 147.84375 -121.609375 C 166.914062 -96.859375 182.925781 -73.976562 195.875 -52.96875 C 208.820312 -31.96875 219.039062 -14.3125 226.53125 0 Z M 162.828125 0 "/></g></g></g></g></g><g clip-path="url(#617983c221)"><g clip-path="url(#504757be8e)"><g transform="matrix(1, 0, 0, 1, 513, 761)"><g clip-path="url(#48cf9551f7)"><g clip-path="url(#06ae9fed26)"><g clip-path="url(#e01808d4f3)"><path fill="#007c3e" d="M 0.582031 0.917969 L 234.519531 0.917969 L 234.519531 234.855469 L 0.582031 234.855469 Z M 0.582031 0.917969 " fill-opacity="1" fill-rule="nonzero"/></g></g></g></g></g></g><g clip-path="url(#9ba98714b7)"><path fill="#ffffff" d="M 712.617188 848.585938 C 711.519531 848.945312 709.453125 849.265625 707.34375 849.773438 C 705.222656 850.28125 703.007812 850.921875 701.296875 851.28125 C 699.574219 851.652344 699.253906 852.066406 697.640625 852.109375 C 696.039062 852.148438 697.480469 852.988281 695.679688 851.800781 C 693.890625 850.613281 692.835938 850.027344 692.222656 849.304688 C 691.609375 848.585938 692.046875 849.210938 692.101562 847.835938 C 692.140625 846.460938 692.714844 846.875 691.875 845.449219 C 691.019531 844.019531 689.660156 843.339844 688.953125 842.445312 C 688.246094 841.539062 688.605469 841.285156 687.5625 840.910156 C 686.523438 840.535156 686.242188 840.46875 685.203125 839.960938 C 684.160156 839.457031 683.734375 838.667969 683.386719 837.535156 C 683.027344 836.386719 682.425781 834.746094 681.796875 833.582031 C 681.183594 832.421875 681.851562 832.808594 680.53125 831.714844 C 679.210938 830.621094 678.609375 830.046875 678.527344 828.953125 C 678.449219 827.859375 678.648438 825.75 678.140625 823.945312 C 677.648438 822.144531 677.835938 822.71875 676.726562 821.625 C 675.621094 820.53125 675.152344 820.195312 674.324219 817.554688 C 673.496094 814.898438 673.84375 815.753906 672.949219 814.003906 C 672.054688 812.253906 669.867188 808.011719 669.066406 806.328125 C 668.265625 804.636719 667.984375 805.007812 667.371094 803.246094 L 663.980469 795.585938 C 663.058594 794.277344 661.511719 796.171875 661.179688 796.332031 C 660.84375 796.492188 660.003906 797.148438 657.800781 797.054688 C 655.613281 796.960938 653.542969 795.988281 652.410156 795.652344 C 651.289062 795.332031 650.289062 795.414062 649.675781 795.453125 C 649.058594 795.492188 649.675781 794.839844 648.472656 794.386719 C 647.273438 793.929688 647.136719 793.929688 645.695312 793.332031 C 644.253906 792.742188 644.335938 793.238281 644.027344 792.144531 C 643.722656 791.046875 642.425781 791.316406 640.570312 791.394531 C 638.714844 791.476562 637.929688 791.621094 637.621094 792.117188 C 637.316406 792.625 636.328125 794.277344 636.179688 794.691406 C 636.046875 795.105469 636.675781 795.785156 636.886719 796.226562 C 637.101562 796.667969 636.632812 797.441406 636.0625 798.28125 C 635.5 799.136719 635.5 798.976562 634.324219 798.761719 C 633.152344 798.535156 632.445312 797.75 631.5625 797.199219 C 630.683594 796.652344 629.09375 796.652344 627.574219 796.132812 C 626.0625 795.613281 626.023438 794.636719 625.144531 793.636719 C 624.277344 792.625 624.582031 792.542969 622.085938 791.796875 C 619.589844 791.046875 619.496094 791.394531 617.363281 790.433594 C 615.214844 789.472656 615.667969 789.648438 613.757812 788.578125 C 611.851562 787.5 611.664062 787.351562 612.4375 786.429688 C 613.210938 785.507812 614.265625 784.640625 614.507812 783.695312 C 614.746094 782.746094 614.359375 782.8125 613.851562 781.519531 C 613.332031 780.222656 613.078125 780.878906 613.625 779.652344 C 614.160156 778.421875 614.492188 778.117188 614.734375 777.820312 C 614.960938 777.542969 614.945312 777.476562 613.8125 777.0625 C 612.691406 776.648438 611.289062 776.152344 611.128906 776.152344 C 610.96875 776.152344 610.117188 776.859375 609.460938 777.207031 C 608.792969 777.554688 608.113281 777.714844 606.484375 777.433594 C 604.855469 777.15625 604.136719 776.886719 603.496094 776.847656 C 602.855469 776.808594 601.867188 778.035156 601.574219 778.460938 C 601.265625 778.902344 601.199219 778.636719 599.691406 778.050781 C 598.183594 777.449219 598.863281 777.273438 597.53125 777.433594 C 596.183594 777.582031 594.207031 778.183594 591.308594 779.25 C 588.414062 780.332031 586.652344 781.160156 584.4375 782.519531 C 582.222656 783.882812 582.636719 783.882812 581.859375 783.46875 C 581.085938 783.054688 580.941406 782.878906 579.660156 782.894531 C 578.363281 782.90625 577.898438 783.46875 577.375 783.335938 C 576.855469 783.199219 576.667969 783.160156 575.5625 782.414062 C 574.453125 781.664062 574.679688 780.878906 573.839844 781.425781 C 572.984375 781.972656 572.746094 783.667969 572.183594 785.003906 C 571.625 786.335938 571.449219 787.257812 570.34375 787.871094 C 569.234375 788.484375 567.113281 789.808594 565.792969 790.5 C 564.472656 791.207031 564.925781 792.210938 564.589844 794.039062 C 564.257812 795.851562 563.761719 800.191406 563.578125 800.722656 C 563.390625 801.257812 562.441406 801.578125 561.292969 802.164062 C 560.148438 802.753906 557.4375 804.6875 556.382812 805.648438 C 555.316406 806.609375 553.6875 810.1875 552.992188 811.347656 C 552.285156 812.507812 551.539062 813.738281 550.191406 816.246094 C 548.84375 818.742188 547.546875 820.4375 547.015625 821.238281 C 546.464844 822.050781 545.785156 822.066406 546.238281 823.492188 C 546.679688 824.921875 547.320312 827.964844 547.882812 829.417969 C 548.441406 830.859375 549.054688 833.515625 548.800781 834.4375 C 548.546875 835.359375 548.386719 835.15625 547.789062 836.625 C 547.199219 838.09375 545.785156 840.921875 545.757812 841.402344 C 545.746094 841.882812 546.292969 841.976562 547.027344 842.992188 C 547.761719 843.992188 549.214844 847.355469 550.699219 849.023438 C 552.179688 850.691406 553.125 852.910156 554.234375 854.484375 C 555.34375 856.070312 555.460938 857.59375 557.0625 859.113281 C 558.664062 860.621094 558.023438 860.675781 559.960938 861.609375 C 561.882812 862.558594 561.441406 863.078125 563.402344 864.054688 C 565.363281 865.015625 566.113281 865.746094 567.378906 866.617188 C 568.648438 867.496094 569.503906 867.84375 571.238281 867.097656 C 572.984375 866.347656 574.707031 864.878906 578.136719 865.5625 C 581.582031 866.242188 582.140625 866.414062 584.089844 865.734375 C 586.050781 865.054688 587.039062 863.71875 589.574219 863.320312 C 592.125 862.933594 589.816406 862.863281 593.632812 862.570312 C 597.4375 862.292969 598.222656 862.265625 598.664062 862.679688 C 599.105469 863.09375 600.386719 864.652344 601.347656 865.773438 C 602.308594 866.894531 602.214844 867.402344 604.457031 867.441406 C 606.699219 867.484375 608.21875 867.042969 608.859375 867.269531 C 609.488281 867.484375 610.074219 868.777344 610.902344 869.683594 C 611.730469 870.59375 611.648438 870.472656 611.304688 872.621094 C 610.941406 874.769531 610.382812 878.507812 610.289062 880.457031 C 610.195312 882.417969 609.808594 881.710938 610.515625 882.871094 C 611.222656 884.03125 611.34375 884.074219 612.210938 885.101562 C 613.089844 886.140625 612.917969 886.433594 613.8125 887.382812 C 614.707031 888.328125 614.027344 887.957031 615.066406 888.808594 C 616.09375 889.664062 616.335938 889.144531 616.800781 890.453125 C 617.28125 891.773438 617.75 893.933594 617.828125 894.910156 C 617.921875 895.871094 617.910156 895.789062 618.589844 898.285156 C 619.269531 900.78125 619.484375 902.609375 620.046875 904.160156 C 620.605469 905.71875 620.804688 905.558594 620.804688 907.429688 C 620.804688 909.296875 620.886719 909.363281 620.367188 910.820312 C 619.84375 912.285156 619.015625 913.472656 618.214844 914.769531 C 617.414062 916.0625 618.148438 916.050781 617.828125 917.933594 C 617.535156 919.8125 617.121094 921.242188 617.082031 922.46875 C 617.027344 923.699219 616.589844 924.964844 616.640625 925.671875 C 616.683594 926.367188 616.800781 925.566406 617.574219 927.382812 C 618.351562 929.210938 618.242188 928.917969 619.457031 931 C 620.6875 933.082031 620.40625 932.640625 621.207031 934.335938 C 622.007812 936.015625 622.566406 937.566406 623.046875 938.832031 C 623.527344 940.101562 623.167969 938.5 623.570312 941.5 C 623.96875 944.503906 624.25 947.359375 624.4375 948.5625 C 624.621094 949.761719 624.648438 950.511719 625.476562 951.363281 C 626.292969 952.21875 626.558594 951.804688 627.453125 953.113281 C 628.347656 954.433594 628.707031 954.980469 629.507812 956.929688 C 630.308594 958.890625 630.253906 959.078125 630.988281 960.308594 C 631.710938 961.535156 631.882812 961.601562 632.042969 963.578125 C 632.21875 965.550781 631.804688 965.820312 632.351562 966.914062 C 632.882812 968.007812 633.070312 967.902344 634.273438 969.207031 C 635.472656 970.53125 635.21875 970.984375 637.167969 970.636719 C 639.117188 970.289062 640.4375 969.996094 644.136719 969.582031 C 647.832031 969.167969 645.003906 969.78125 648.886719 968.527344 C 652.769531 967.285156 653.691406 968.394531 654.492188 966.699219 C 655.292969 965.003906 656.734375 964.644531 658.535156 963.175781 C 660.351562 961.707031 660.230469 962.027344 661.671875 959.691406 C 663.113281 957.34375 663.648438 956.421875 664.996094 954.472656 C 666.34375 952.527344 667.089844 953.167969 667.183594 951.578125 C 667.277344 950.003906 667.117188 947.375 667.398438 946.039062 C 667.679688 944.703125 666.785156 945.183594 669.265625 944.210938 C 671.734375 943.25 673.898438 943.195312 674.109375 941.355469 C 674.324219 939.511719 674.296875 939.753906 674.484375 938.246094 C 674.671875 936.738281 675.246094 936.855469 674.445312 935.109375 C 673.644531 933.359375 672.988281 932.132812 672.683594 931.183594 C 672.375 930.238281 672.964844 930.398438 673.738281 928.902344 C 674.511719 927.40625 676.820312 925.394531 677.621094 924.433594 C 678.421875 923.472656 678.355469 923.777344 680.089844 923.003906 C 681.839844 922.242188 684.800781 921.269531 685.347656 919.855469 C 685.894531 918.425781 686.402344 917.398438 686.789062 915.808594 C 687.164062 914.234375 687.042969 911.820312 686.921875 909.390625 C 686.804688 906.960938 686.855469 905.90625 685.65625 904.238281 C 684.453125 902.570312 685.015625 904.066406 684.214844 901.984375 C 683.414062 899.902344 684.667969 898.605469 684.359375 897.457031 C 684.054688 896.3125 683.601562 896.164062 682.757812 895.269531 C 681.917969 894.375 683.039062 894.242188 683.160156 893.203125 C 683.28125 892.171875 685.28125 890.160156 685.988281 888.730469 C 686.695312 887.300781 687.230469 886.78125 688.179688 885.328125 C 689.125 883.886719 692.636719 879.800781 693.785156 878.332031 C 694.929688 876.867188 694.542969 876.867188 696.09375 875.609375 C 697.652344 874.355469 700.964844 872.007812 702.03125 870.710938 C 703.085938 869.417969 703.96875 868.164062 704.699219 866.617188 C 705.421875 865.054688 708.90625 860.128906 709.425781 858.914062 C 709.945312 857.714844 710.199219 857.578125 710.90625 856.085938 C 711.613281 854.589844 712.015625 853.054688 712.828125 851.214844 C 713.722656 849.425781 713.695312 848.238281 712.617188 848.585938 Z M 712.617188 848.585938 " fill-opacity="1" fill-rule="nonzero"/></g><g clip-path="url(#d6f75edbd5)"><path fill="#40b93c" d="M 961.3125 572.476562 C 961.3125 572.476562 885.675781 781.179688 603.957031 734.261719 C 630.910156 700.15625 703.367188 629.605469 855.851562 603.398438 C 855.851562 603.398438 677.128906 600.746094 579.457031 729.625 C 674.15625 420.726562 961.3125 572.476562 961.3125 572.476562 " fill-opacity="1" fill-rule="nonzero"/></g><path fill="#d18e1b" d="M 403.539062 484.167969 C 403.539062 484.167969 451.308594 498.417969 491.546875 545.953125 C 476.886719 602.863281 485.761719 664.476562 517.960938 729.730469 C 489.066406 701.3125 452.085938 650.15625 432.011719 563.796875 C 432.011719 563.796875 437.976562 701.203125 541.351562 770.46875 C 299.824219 711.550781 403.539062 484.167969 403.539062 484.167969 " fill-opacity="1" fill-rule="nonzero"/><g clip-path="url(#42da557c4f)"><path fill="#007c3e" d="M 686.699219 367.664062 C 686.699219 367.664062 726.898438 441.316406 706.363281 539.925781 C 703.664062 541.167969 700.960938 542.460938 698.277344 543.835938 C 639.191406 573.988281 595.414062 630.589844 567.953125 712.085938 C 565.003906 660.3125 574.273438 573.804688 640.082031 467.195312 C 640.082031 467.195312 519.824219 599.414062 551.796875 757.929688 C 382.898438 482.507812 686.699219 367.664062 686.699219 367.664062 " fill-opacity="1" fill-rule="nonzero"/></g><g transform="matrix(1, 0, 0, 1, 81, 1007)"><g clip-path="url(#461ac8920a)"><g fill="#d18e1b" fill-opacity="1"><g transform="translate(0.697283, 100.865103)"><g><path d="M 59.03125 0 C 57.8125 -3.226562 56.664062 -6.398438 55.59375 -9.515625 C 54.519531 -12.628906 53.410156 -15.800781 52.265625 -19.03125 L 18.5 -19.03125 L 11.71875 0 L 0.859375 0 C 3.722656 -7.882812 6.410156 -15.175781 8.921875 -21.875 C 11.429688 -28.582031 13.882812 -34.945312 16.28125 -40.96875 C 18.6875 -46.988281 21.070312 -52.738281 23.4375 -58.21875 C 25.800781 -63.707031 28.273438 -69.140625 30.859375 -74.515625 L 40.4375 -74.515625 C 43.007812 -69.140625 45.476562 -63.707031 47.84375 -58.21875 C 50.21875 -52.738281 52.601562 -46.988281 55 -40.96875 C 57.40625 -34.945312 59.859375 -28.582031 62.359375 -21.875 C 64.867188 -15.175781 67.5625 -7.882812 70.4375 0 Z M 49.25 -27.640625 C 46.957031 -33.867188 44.679688 -39.90625 42.421875 -45.75 C 40.160156 -51.59375 37.8125 -57.203125 35.375 -62.578125 C 32.863281 -57.203125 30.476562 -51.59375 28.21875 -45.75 C 25.96875 -39.90625 23.726562 -33.867188 21.5 -27.640625 Z M 49.25 -27.640625 "/></g></g></g><g clip-path="url(#fef46fbab1)"><g fill="#d18e1b" fill-opacity="1"><g transform="translate(70.268072, 100.865103)"><g><path d="M 43.65625 -5.59375 C 42.800781 -5.019531 41.132812 -4.285156 38.65625 -3.390625 C 36.1875 -2.492188 33.300781 -2.046875 30 -2.046875 C 26.632812 -2.046875 23.460938 -2.582031 20.484375 -3.65625 C 17.503906 -4.726562 14.90625 -6.394531 12.6875 -8.65625 C 10.46875 -10.914062 8.710938 -13.726562 7.421875 -17.09375 C 6.128906 -20.46875 5.484375 -24.484375 5.484375 -29.140625 C 5.484375 -33.222656 6.09375 -36.96875 7.3125 -40.375 C 8.53125 -43.78125 10.300781 -46.71875 12.625 -49.1875 C 14.957031 -51.664062 17.804688 -53.601562 21.171875 -55 C 24.546875 -56.394531 28.347656 -57.09375 32.578125 -57.09375 C 37.242188 -57.09375 41.3125 -56.753906 44.78125 -56.078125 C 48.257812 -55.398438 51.179688 -54.773438 53.546875 -54.203125 L 53.546875 -4.296875 C 53.546875 4.304688 51.320312 10.539062 46.875 14.40625 C 42.4375 18.28125 35.703125 20.21875 26.671875 20.21875 C 23.160156 20.21875 19.84375 19.929688 16.71875 19.359375 C 13.601562 18.785156 10.898438 18.101562 8.609375 17.3125 L 10.4375 8.609375 C 12.4375 9.390625 14.890625 10.082031 17.796875 10.6875 C 20.703125 11.300781 23.734375 11.609375 26.890625 11.609375 C 32.835938 11.609375 37.117188 10.425781 39.734375 8.0625 C 42.347656 5.695312 43.65625 1.9375 43.65625 -3.21875 Z M 43.546875 -47.09375 C 42.546875 -47.382812 41.203125 -47.65625 39.515625 -47.90625 C 37.828125 -48.15625 35.550781 -48.28125 32.6875 -48.28125 C 27.3125 -48.28125 23.171875 -46.523438 20.265625 -43.015625 C 17.367188 -39.503906 15.921875 -34.84375 15.921875 -29.03125 C 15.921875 -25.800781 16.332031 -23.039062 17.15625 -20.75 C 17.976562 -18.457031 19.085938 -16.554688 20.484375 -15.046875 C 21.878906 -13.546875 23.488281 -12.4375 25.3125 -11.71875 C 27.144531 -11 29.03125 -10.640625 30.96875 -10.640625 C 33.625 -10.640625 36.0625 -11.015625 38.28125 -11.765625 C 40.5 -12.523438 42.253906 -13.40625 43.546875 -14.40625 Z M 43.546875 -47.09375 "/></g></g></g></g><g fill="#d18e1b" fill-opacity="1"><g transform="translate(132.419454, 100.865103)"><g><path d="M 29.25 -57.09375 C 30.101562 -57.09375 31.085938 -57.039062 32.203125 -56.9375 C 33.316406 -56.832031 34.410156 -56.6875 35.484375 -56.5 C 36.554688 -56.320312 37.539062 -56.144531 38.4375 -55.96875 C 39.332031 -55.789062 40 -55.628906 40.4375 -55.484375 L 38.71875 -46.78125 C 37.925781 -47.0625 36.613281 -47.398438 34.78125 -47.796875 C 32.957031 -48.191406 30.613281 -48.390625 27.75 -48.390625 C 25.882812 -48.390625 24.035156 -48.191406 22.203125 -47.796875 C 20.378906 -47.398438 19.179688 -47.128906 18.609375 -46.984375 L 18.609375 0 L 8.609375 0 L 8.609375 -53.546875 C 10.972656 -54.410156 13.910156 -55.21875 17.421875 -55.96875 C 20.929688 -56.71875 24.875 -57.09375 29.25 -57.09375 Z M 29.25 -57.09375 "/></g></g></g><g fill="#d18e1b" fill-opacity="1"><g transform="translate(173.925396, 100.865103)"><g><path d="M 18.609375 0 L 8.609375 0 L 8.609375 -55.921875 L 18.609375 -55.921875 Z M 13.546875 -66.03125 C 11.753906 -66.03125 10.226562 -66.617188 8.96875 -67.796875 C 7.71875 -68.984375 7.09375 -70.578125 7.09375 -72.578125 C 7.09375 -74.585938 7.71875 -76.179688 8.96875 -77.359375 C 10.226562 -78.546875 11.753906 -79.140625 13.546875 -79.140625 C 15.335938 -79.140625 16.859375 -78.546875 18.109375 -77.359375 C 19.367188 -76.179688 20 -74.585938 20 -72.578125 C 20 -70.578125 19.367188 -68.984375 18.109375 -67.796875 C 16.859375 -66.617188 15.335938 -66.03125 13.546875 -66.03125 Z M 13.546875 -66.03125 "/></g></g></g><g fill="#d18e1b" fill-opacity="1"><g transform="translate(201.130066, 100.865103)"><g><path d="M 17.953125 -55.921875 L 39.140625 -55.921875 L 39.140625 -47.53125 L 17.953125 -47.53125 L 17.953125 -21.71875 C 17.953125 -18.925781 18.164062 -16.613281 18.59375 -14.78125 C 19.03125 -12.957031 19.675781 -11.523438 20.53125 -10.484375 C 21.394531 -9.441406 22.472656 -8.707031 23.765625 -8.28125 C 25.054688 -7.851562 26.5625 -7.640625 28.28125 -7.640625 C 31.289062 -7.640625 33.707031 -7.976562 35.53125 -8.65625 C 37.363281 -9.332031 38.640625 -9.816406 39.359375 -10.109375 L 41.296875 -1.828125 C 40.285156 -1.328125 38.523438 -0.703125 36.015625 0.046875 C 33.515625 0.804688 30.648438 1.1875 27.421875 1.1875 C 23.617188 1.1875 20.476562 0.703125 18 -0.265625 C 15.53125 -1.234375 13.539062 -2.6875 12.03125 -4.625 C 10.53125 -6.5625 9.472656 -8.941406 8.859375 -11.765625 C 8.253906 -14.597656 7.953125 -17.878906 7.953125 -21.609375 L 7.953125 -71.515625 L 17.953125 -73.234375 Z M 17.953125 -55.921875 "/></g></g></g><g fill="#d18e1b" fill-opacity="1"><g transform="translate(244.356461, 100.865103)"><g><path d="M 29.25 -57.09375 C 30.101562 -57.09375 31.085938 -57.039062 32.203125 -56.9375 C 33.316406 -56.832031 34.410156 -56.6875 35.484375 -56.5 C 36.554688 -56.320312 37.539062 -56.144531 38.4375 -55.96875 C 39.332031 -55.789062 40 -55.628906 40.4375 -55.484375 L 38.71875 -46.78125 C 37.925781 -47.0625 36.613281 -47.398438 34.78125 -47.796875 C 32.957031 -48.191406 30.613281 -48.390625 27.75 -48.390625 C 25.882812 -48.390625 24.035156 -48.191406 22.203125 -47.796875 C 20.378906 -47.398438 19.179688 -47.128906 18.609375 -46.984375 L 18.609375 0 L 8.609375 0 L 8.609375 -53.546875 C 10.972656 -54.410156 13.910156 -55.21875 17.421875 -55.96875 C 20.929688 -56.71875 24.875 -57.09375 29.25 -57.09375 Z M 29.25 -57.09375 "/></g></g></g><g fill="#d18e1b" fill-opacity="1"><g transform="translate(285.862403, 100.865103)"><g><path d="M 27.53125 -7.203125 C 29.894531 -7.203125 31.988281 -7.253906 33.8125 -7.359375 C 35.644531 -7.472656 37.171875 -7.671875 38.390625 -7.953125 L 38.390625 -24.625 C 37.671875 -24.976562 36.503906 -25.28125 34.890625 -25.53125 C 33.273438 -25.789062 31.320312 -25.921875 29.03125 -25.921875 C 27.53125 -25.921875 25.9375 -25.8125 24.25 -25.59375 C 22.5625 -25.375 21.019531 -24.925781 19.625 -24.25 C 18.226562 -23.570312 17.0625 -22.640625 16.125 -21.453125 C 15.195312 -20.265625 14.734375 -18.707031 14.734375 -16.78125 C 14.734375 -13.1875 15.878906 -10.691406 18.171875 -9.296875 C 20.460938 -7.898438 23.582031 -7.203125 27.53125 -7.203125 Z M 26.671875 -57.3125 C 30.679688 -57.3125 34.066406 -56.789062 36.828125 -55.75 C 39.585938 -54.71875 41.804688 -53.25 43.484375 -51.34375 C 45.171875 -49.445312 46.375 -47.1875 47.09375 -44.5625 C 47.8125 -41.945312 48.171875 -39.066406 48.171875 -35.921875 L 48.171875 -0.96875 C 47.316406 -0.820312 46.117188 -0.625 44.578125 -0.375 C 43.035156 -0.125 41.296875 0.101562 39.359375 0.3125 C 37.421875 0.53125 35.320312 0.726562 33.0625 0.90625 C 30.800781 1.09375 28.5625 1.1875 26.34375 1.1875 C 23.1875 1.1875 20.28125 0.863281 17.625 0.21875 C 14.976562 -0.425781 12.6875 -1.445312 10.75 -2.84375 C 8.8125 -4.25 7.304688 -6.097656 6.234375 -8.390625 C 5.160156 -10.679688 4.625 -13.441406 4.625 -16.671875 C 4.625 -19.753906 5.25 -22.40625 6.5 -24.625 C 7.757812 -26.84375 9.460938 -28.632812 11.609375 -30 C 13.765625 -31.363281 16.273438 -32.367188 19.140625 -33.015625 C 22.003906 -33.660156 25.015625 -33.984375 28.171875 -33.984375 C 29.171875 -33.984375 30.207031 -33.925781 31.28125 -33.8125 C 32.363281 -33.707031 33.390625 -33.566406 34.359375 -33.390625 C 35.328125 -33.210938 36.164062 -33.050781 36.875 -32.90625 C 37.59375 -32.757812 38.097656 -32.648438 38.390625 -32.578125 L 38.390625 -35.375 C 38.390625 -37.019531 38.207031 -38.648438 37.84375 -40.265625 C 37.488281 -41.878906 36.84375 -43.3125 35.90625 -44.5625 C 34.976562 -45.820312 33.707031 -46.828125 32.09375 -47.578125 C 30.476562 -48.335938 28.382812 -48.71875 25.8125 -48.71875 C 22.507812 -48.71875 19.617188 -48.484375 17.140625 -48.015625 C 14.671875 -47.546875 12.828125 -47.0625 11.609375 -46.5625 L 10.4375 -54.84375 C 11.71875 -55.414062 13.863281 -55.96875 16.875 -56.5 C 19.894531 -57.039062 23.160156 -57.3125 26.671875 -57.3125 Z M 26.671875 -57.3125 "/></g></g></g><g fill="#d18e1b" fill-opacity="1"><g transform="translate(341.992198, 100.865103)"><g><path d="M 44.734375 -44.09375 C 43.515625 -45.09375 41.753906 -46.054688 39.453125 -46.984375 C 37.160156 -47.921875 34.65625 -48.390625 31.9375 -48.390625 C 29.070312 -48.390625 26.613281 -47.867188 24.5625 -46.828125 C 22.519531 -45.785156 20.851562 -44.347656 19.5625 -42.515625 C 18.28125 -40.691406 17.351562 -38.523438 16.78125 -36.015625 C 16.207031 -33.515625 15.921875 -30.828125 15.921875 -27.953125 C 15.921875 -21.429688 17.53125 -16.394531 20.75 -12.84375 C 23.976562 -9.300781 28.28125 -7.53125 33.65625 -7.53125 C 36.382812 -7.53125 38.660156 -7.65625 40.484375 -7.90625 C 42.316406 -8.15625 43.734375 -8.421875 44.734375 -8.703125 Z M 44.734375 -81.71875 L 54.734375 -83.4375 L 54.734375 -1.609375 C 52.441406 -0.960938 49.503906 -0.316406 45.921875 0.328125 C 42.335938 0.972656 38.210938 1.296875 33.546875 1.296875 C 29.242188 1.296875 25.375 0.613281 21.9375 -0.75 C 18.5 -2.113281 15.5625 -4.050781 13.125 -6.5625 C 10.6875 -9.070312 8.800781 -12.132812 7.46875 -15.75 C 6.144531 -19.375 5.484375 -23.441406 5.484375 -27.953125 C 5.484375 -32.253906 6.035156 -36.195312 7.140625 -39.78125 C 8.253906 -43.363281 9.882812 -46.445312 12.03125 -49.03125 C 14.1875 -51.613281 16.820312 -53.617188 19.9375 -55.046875 C 23.0625 -56.484375 26.628906 -57.203125 30.640625 -57.203125 C 33.867188 -57.203125 36.71875 -56.769531 39.1875 -55.90625 C 41.664062 -55.050781 43.515625 -54.226562 44.734375 -53.4375 Z M 44.734375 -81.71875 "/></g></g></g><g fill="#d18e1b" fill-opacity="1"><g transform="translate(405.326387, 100.865103)"><g><path d="M 5.484375 -27.84375 C 5.484375 -32.789062 6.195312 -37.109375 7.625 -40.796875 C 9.0625 -44.492188 10.960938 -47.5625 13.328125 -50 C 15.691406 -52.4375 18.414062 -54.265625 21.5 -55.484375 C 24.582031 -56.703125 27.738281 -57.3125 30.96875 -57.3125 C 38.5 -57.3125 44.269531 -54.960938 48.28125 -50.265625 C 52.289062 -45.578125 54.296875 -38.425781 54.296875 -28.8125 C 54.296875 -28.382812 54.296875 -27.828125 54.296875 -27.140625 C 54.296875 -26.460938 54.265625 -25.835938 54.203125 -25.265625 L 15.921875 -25.265625 C 16.347656 -19.460938 18.03125 -15.054688 20.96875 -12.046875 C 23.90625 -9.035156 28.492188 -7.53125 34.734375 -7.53125 C 38.242188 -7.53125 41.195312 -7.832031 43.59375 -8.4375 C 46 -9.050781 47.8125 -9.644531 49.03125 -10.21875 L 50.4375 -1.828125 C 49.21875 -1.179688 47.082031 -0.5 44.03125 0.21875 C 40.988281 0.9375 37.53125 1.296875 33.65625 1.296875 C 28.78125 1.296875 24.566406 0.5625 21.015625 -0.90625 C 17.472656 -2.382812 14.550781 -4.410156 12.25 -6.984375 C 9.957031 -9.566406 8.253906 -12.628906 7.140625 -16.171875 C 6.035156 -19.722656 5.484375 -23.613281 5.484375 -27.84375 Z M 43.875 -33.328125 C 43.945312 -37.847656 42.816406 -41.554688 40.484375 -44.453125 C 38.148438 -47.359375 34.941406 -48.8125 30.859375 -48.8125 C 28.566406 -48.8125 26.539062 -48.363281 24.78125 -47.46875 C 23.03125 -46.570312 21.546875 -45.40625 20.328125 -43.96875 C 19.109375 -42.539062 18.15625 -40.894531 17.46875 -39.03125 C 16.789062 -37.164062 16.34375 -35.265625 16.125 -33.328125 Z M 43.875 -33.328125 "/></g></g></g><g fill="#d18e1b" fill-opacity="1"><g transform="translate(465.434708, 100.865103)"><g/></g></g><g fill="#d18e1b" fill-opacity="1"><g transform="translate(490.273763, 100.865103)"><g><path d="M 41.296875 1.609375 C 36.054688 1.609375 31.285156 0.75 26.984375 -0.96875 C 22.679688 -2.6875 18.988281 -5.191406 15.90625 -8.484375 C 12.832031 -11.785156 10.453125 -15.851562 8.765625 -20.6875 C 7.078125 -25.53125 6.234375 -31.070312 6.234375 -37.3125 C 6.234375 -43.550781 7.179688 -49.085938 9.078125 -53.921875 C 10.984375 -58.765625 13.546875 -62.832031 16.765625 -66.125 C 19.992188 -69.425781 23.757812 -71.9375 28.0625 -73.65625 C 32.363281 -75.375 36.953125 -76.234375 41.828125 -76.234375 C 44.910156 -76.234375 47.6875 -76.019531 50.15625 -75.59375 C 52.632812 -75.164062 54.785156 -74.664062 56.609375 -74.09375 C 58.441406 -73.519531 59.929688 -72.945312 61.078125 -72.375 C 62.222656 -71.800781 63.007812 -71.367188 63.4375 -71.078125 L 60.4375 -62.46875 C 59.789062 -62.90625 58.859375 -63.375 57.640625 -63.875 C 56.421875 -64.375 55.039062 -64.875 53.5 -65.375 C 51.957031 -65.875 50.269531 -66.285156 48.4375 -66.609375 C 46.613281 -66.929688 44.769531 -67.09375 42.90625 -67.09375 C 38.957031 -67.09375 35.40625 -66.410156 32.25 -65.046875 C 29.101562 -63.691406 26.414062 -61.722656 24.1875 -59.140625 C 21.96875 -56.554688 20.265625 -53.421875 19.078125 -49.734375 C 17.898438 -46.046875 17.3125 -41.90625 17.3125 -37.3125 C 17.3125 -32.863281 17.832031 -28.8125 18.875 -25.15625 C 19.914062 -21.5 21.472656 -18.363281 23.546875 -15.75 C 25.628906 -13.132812 28.226562 -11.109375 31.34375 -9.671875 C 34.457031 -8.242188 38.097656 -7.53125 42.265625 -7.53125 C 47.066406 -7.53125 51.039062 -8.03125 54.1875 -9.03125 C 57.34375 -10.03125 59.710938 -10.925781 61.296875 -11.71875 L 63.984375 -3.125 C 63.484375 -2.757812 62.585938 -2.304688 61.296875 -1.765625 C 60.003906 -1.234375 58.390625 -0.71875 56.453125 -0.21875 C 54.515625 0.28125 52.253906 0.707031 49.671875 1.0625 C 47.097656 1.425781 44.304688 1.609375 41.296875 1.609375 Z M 41.296875 1.609375 "/></g></g></g><g fill="#d18e1b" fill-opacity="1"><g transform="translate(555.328355, 100.865103)"><g><path d="M 57.953125 -27.953125 C 57.953125 -23.515625 57.304688 -19.5 56.015625 -15.90625 C 54.734375 -12.320312 52.925781 -9.238281 50.59375 -6.65625 C 48.257812 -4.082031 45.476562 -2.097656 42.25 -0.703125 C 39.03125 0.691406 35.519531 1.390625 31.71875 1.390625 C 27.914062 1.390625 24.398438 0.691406 21.171875 -0.703125 C 17.953125 -2.097656 15.175781 -4.082031 12.84375 -6.65625 C 10.519531 -9.238281 8.710938 -12.320312 7.421875 -15.90625 C 6.128906 -19.5 5.484375 -23.515625 5.484375 -27.953125 C 5.484375 -32.328125 6.128906 -36.320312 7.421875 -39.9375 C 8.710938 -43.5625 10.519531 -46.664062 12.84375 -49.25 C 15.175781 -51.832031 17.953125 -53.820312 21.171875 -55.21875 C 24.398438 -56.613281 27.914062 -57.3125 31.71875 -57.3125 C 35.519531 -57.3125 39.03125 -56.613281 42.25 -55.21875 C 45.476562 -53.820312 48.257812 -51.832031 50.59375 -49.25 C 52.925781 -46.664062 54.734375 -43.5625 56.015625 -39.9375 C 57.304688 -36.320312 57.953125 -32.328125 57.953125 -27.953125 Z M 47.53125 -27.953125 C 47.53125 -34.265625 46.113281 -39.265625 43.28125 -42.953125 C 40.445312 -46.648438 36.59375 -48.5 31.71875 -48.5 C 26.84375 -48.5 22.988281 -46.648438 20.15625 -42.953125 C 17.332031 -39.265625 15.921875 -34.265625 15.921875 -27.953125 C 15.921875 -21.648438 17.332031 -16.648438 20.15625 -12.953125 C 22.988281 -9.265625 26.84375 -7.421875 31.71875 -7.421875 C 36.59375 -7.421875 40.445312 -9.265625 43.28125 -12.953125 C 46.113281 -16.648438 47.53125 -21.648438 47.53125 -27.953125 Z M 47.53125 -27.953125 "/></g></g></g><g fill="#d18e1b" fill-opacity="1"><g transform="translate(618.770089, 100.865103)"><g><path d="M 8.609375 -54.296875 C 10.898438 -54.867188 13.925781 -55.476562 17.6875 -56.125 C 21.445312 -56.769531 25.800781 -57.09375 30.75 -57.09375 C 34.332031 -57.09375 37.34375 -56.609375 39.78125 -55.640625 C 42.21875 -54.679688 44.265625 -53.269531 45.921875 -51.40625 C 46.421875 -51.757812 47.207031 -52.257812 48.28125 -52.90625 C 49.351562 -53.550781 50.675781 -54.175781 52.25 -54.78125 C 53.832031 -55.394531 55.59375 -55.929688 57.53125 -56.390625 C 59.46875 -56.859375 61.546875 -57.09375 63.765625 -57.09375 C 68.066406 -57.09375 71.578125 -56.460938 74.296875 -55.203125 C 77.023438 -53.953125 79.160156 -52.179688 80.703125 -49.890625 C 82.242188 -47.597656 83.28125 -44.875 83.8125 -41.71875 C 84.351562 -38.5625 84.625 -35.125 84.625 -31.40625 L 84.625 0 L 74.625 0 L 74.625 -29.25 C 74.625 -32.539062 74.460938 -35.367188 74.140625 -37.734375 C 73.816406 -40.109375 73.207031 -42.082031 72.3125 -43.65625 C 71.414062 -45.226562 70.195312 -46.390625 68.65625 -47.140625 C 67.113281 -47.898438 65.125 -48.28125 62.6875 -48.28125 C 59.320312 -48.28125 56.546875 -47.832031 54.359375 -46.9375 C 52.171875 -46.039062 50.679688 -45.234375 49.890625 -44.515625 C 50.460938 -42.648438 50.890625 -40.609375 51.171875 -38.390625 C 51.460938 -36.171875 51.609375 -33.84375 51.609375 -31.40625 L 51.609375 0 L 41.609375 0 L 41.609375 -29.25 C 41.609375 -32.539062 41.429688 -35.367188 41.078125 -37.734375 C 40.722656 -40.109375 40.09375 -42.082031 39.1875 -43.65625 C 38.289062 -45.226562 37.070312 -46.390625 35.53125 -47.140625 C 34 -47.898438 32.046875 -48.28125 29.671875 -48.28125 C 28.671875 -48.28125 27.597656 -48.242188 26.453125 -48.171875 C 25.304688 -48.097656 24.210938 -48.007812 23.171875 -47.90625 C 22.128906 -47.800781 21.175781 -47.675781 20.3125 -47.53125 C 19.457031 -47.382812 18.890625 -47.273438 18.609375 -47.203125 L 18.609375 0 L 8.609375 0 Z M 8.609375 -54.296875 "/></g></g></g><g fill="#d18e1b" fill-opacity="1"><g transform="translate(711.351985, 100.865103)"><g><path d="M 47.421875 -27.84375 C 47.421875 -34.375 45.804688 -39.394531 42.578125 -42.90625 C 39.359375 -46.414062 35.054688 -48.171875 29.671875 -48.171875 C 26.660156 -48.171875 24.3125 -48.0625 22.625 -47.84375 C 20.945312 -47.632812 19.609375 -47.382812 18.609375 -47.09375 L 18.609375 -11.828125 C 19.828125 -10.828125 21.582031 -9.859375 23.875 -8.921875 C 26.164062 -7.992188 28.675781 -7.53125 31.40625 -7.53125 C 34.269531 -7.53125 36.722656 -8.046875 38.765625 -9.078125 C 40.804688 -10.117188 42.472656 -11.550781 43.765625 -13.375 C 45.054688 -15.207031 45.988281 -17.359375 46.5625 -19.828125 C 47.132812 -22.304688 47.421875 -24.976562 47.421875 -27.84375 Z M 57.859375 -27.84375 C 57.859375 -23.613281 57.300781 -19.707031 56.1875 -16.125 C 55.070312 -12.539062 53.4375 -9.457031 51.28125 -6.875 C 49.132812 -4.300781 46.503906 -2.296875 43.390625 -0.859375 C 40.273438 0.578125 36.707031 1.296875 32.6875 1.296875 C 29.457031 1.296875 26.609375 0.863281 24.140625 0 C 21.671875 -0.863281 19.828125 -1.6875 18.609375 -2.46875 L 18.609375 19.890625 L 8.609375 19.890625 L 8.609375 -54.203125 C 10.972656 -54.773438 13.925781 -55.398438 17.46875 -56.078125 C 21.019531 -56.753906 25.125 -57.09375 29.78125 -57.09375 C 34.082031 -57.09375 37.953125 -56.410156 41.390625 -55.046875 C 44.835938 -53.691406 47.78125 -51.757812 50.21875 -49.25 C 52.65625 -46.738281 54.535156 -43.671875 55.859375 -40.046875 C 57.191406 -36.429688 57.859375 -32.363281 57.859375 -27.84375 Z M 57.859375 -27.84375 "/></g></g></g><g fill="#d18e1b" fill-opacity="1"><g transform="translate(774.686174, 100.865103)"><g><path d="M 27.53125 -7.203125 C 29.894531 -7.203125 31.988281 -7.253906 33.8125 -7.359375 C 35.644531 -7.472656 37.171875 -7.671875 38.390625 -7.953125 L 38.390625 -24.625 C 37.671875 -24.976562 36.503906 -25.28125 34.890625 -25.53125 C 33.273438 -25.789062 31.320312 -25.921875 29.03125 -25.921875 C 27.53125 -25.921875 25.9375 -25.8125 24.25 -25.59375 C 22.5625 -25.375 21.019531 -24.925781 19.625 -24.25 C 18.226562 -23.570312 17.0625 -22.640625 16.125 -21.453125 C 15.195312 -20.265625 14.734375 -18.707031 14.734375 -16.78125 C 14.734375 -13.1875 15.878906 -10.691406 18.171875 -9.296875 C 20.460938 -7.898438 23.582031 -7.203125 27.53125 -7.203125 Z M 26.671875 -57.3125 C 30.679688 -57.3125 34.066406 -56.789062 36.828125 -55.75 C 39.585938 -54.71875 41.804688 -53.25 43.484375 -51.34375 C 45.171875 -49.445312 46.375 -47.1875 47.09375 -44.5625 C 47.8125 -41.945312 48.171875 -39.066406 48.171875 -35.921875 L 48.171875 -0.96875 C 47.316406 -0.820312 46.117188 -0.625 44.578125 -0.375 C 43.035156 -0.125 41.296875 0.101562 39.359375 0.3125 C 37.421875 0.53125 35.320312 0.726562 33.0625 0.90625 C 30.800781 1.09375 28.5625 1.1875 26.34375 1.1875 C 23.1875 1.1875 20.28125 0.863281 17.625 0.21875 C 14.976562 -0.425781 12.6875 -1.445312 10.75 -2.84375 C 8.8125 -4.25 7.304688 -6.097656 6.234375 -8.390625 C 5.160156 -10.679688 4.625 -13.441406 4.625 -16.671875 C 4.625 -19.753906 5.25 -22.40625 6.5 -24.625 C 7.757812 -26.84375 9.460938 -28.632812 11.609375 -30 C 13.765625 -31.363281 16.273438 -32.367188 19.140625 -33.015625 C 22.003906 -33.660156 25.015625 -33.984375 28.171875 -33.984375 C 29.171875 -33.984375 30.207031 -33.925781 31.28125 -33.8125 C 32.363281 -33.707031 33.390625 -33.566406 34.359375 -33.390625 C 35.328125 -33.210938 36.164062 -33.050781 36.875 -32.90625 C 37.59375 -32.757812 38.097656 -32.648438 38.390625 -32.578125 L 38.390625 -35.375 C 38.390625 -37.019531 38.207031 -38.648438 37.84375 -40.265625 C 37.488281 -41.878906 36.84375 -43.3125 35.90625 -44.5625 C 34.976562 -45.820312 33.707031 -46.828125 32.09375 -47.578125 C 30.476562 -48.335938 28.382812 -48.71875 25.8125 -48.71875 C 22.507812 -48.71875 19.617188 -48.484375 17.140625 -48.015625 C 14.671875 -47.546875 12.828125 -47.0625 11.609375 -46.5625 L 10.4375 -54.84375 C 11.71875 -55.414062 13.863281 -55.96875 16.875 -56.5 C 19.894531 -57.039062 23.160156 -57.3125 26.671875 -57.3125 Z M 26.671875 -57.3125 "/></g></g></g><g fill="#d18e1b" fill-opacity="1"><g transform="translate(830.815969, 100.865103)"><g><path d="M 8.609375 -54.296875 C 10.898438 -54.867188 13.941406 -55.476562 17.734375 -56.125 C 21.535156 -56.769531 25.910156 -57.09375 30.859375 -57.09375 C 35.304688 -57.09375 39 -56.460938 41.9375 -55.203125 C 44.875 -53.953125 47.21875 -52.195312 48.96875 -49.9375 C 50.726562 -47.6875 51.96875 -44.984375 52.6875 -41.828125 C 53.40625 -38.671875 53.765625 -35.195312 53.765625 -31.40625 L 53.765625 0 L 43.765625 0 L 43.765625 -29.25 C 43.765625 -32.6875 43.53125 -35.625 43.0625 -38.0625 C 42.601562 -40.5 41.832031 -42.46875 40.75 -43.96875 C 39.675781 -45.476562 38.242188 -46.570312 36.453125 -47.25 C 34.660156 -47.9375 32.4375 -48.28125 29.78125 -48.28125 C 28.707031 -48.28125 27.597656 -48.242188 26.453125 -48.171875 C 25.304688 -48.097656 24.210938 -48.007812 23.171875 -47.90625 C 22.128906 -47.800781 21.195312 -47.675781 20.375 -47.53125 C 19.550781 -47.382812 18.960938 -47.273438 18.609375 -47.203125 L 18.609375 0 L 8.609375 0 Z M 8.609375 -54.296875 "/></g></g></g><g clip-path="url(#fc6f5d89bb)"><g fill="#d18e1b" fill-opacity="1"><g transform="translate(890.601657, 100.865103)"><g><path d="M 2.046875 10.4375 C 2.828125 10.789062 3.84375 11.128906 5.09375 11.453125 C 6.351562 11.773438 7.59375 11.9375 8.8125 11.9375 C 12.757812 11.9375 15.84375 11.054688 18.0625 9.296875 C 20.289062 7.546875 22.300781 4.695312 24.09375 0.75 C 19.570312 -7.851562 15.359375 -16.972656 11.453125 -26.609375 C 7.546875 -36.253906 4.300781 -46.023438 1.71875 -55.921875 L 12.46875 -55.921875 C 13.257812 -52.691406 14.207031 -49.210938 15.3125 -45.484375 C 16.425781 -41.753906 17.664062 -37.914062 19.03125 -33.96875 C 20.394531 -30.03125 21.863281 -26.085938 23.4375 -22.140625 C 25.019531 -18.203125 26.671875 -14.40625 28.390625 -10.75 C 31.109375 -18.28125 33.472656 -25.738281 35.484375 -33.125 C 37.492188 -40.507812 39.394531 -48.109375 41.1875 -55.921875 L 51.5 -55.921875 C 48.925781 -45.378906 46.0625 -35.25 42.90625 -25.53125 C 39.75 -15.820312 36.34375 -6.738281 32.6875 1.71875 C 31.25 4.945312 29.757812 7.722656 28.21875 10.046875 C 26.6875 12.378906 24.988281 14.296875 23.125 15.796875 C 21.257812 17.304688 19.160156 18.421875 16.828125 19.140625 C 14.492188 19.859375 11.859375 20.21875 8.921875 20.21875 C 8.140625 20.21875 7.316406 20.160156 6.453125 20.046875 C 5.585938 19.941406 4.742188 19.800781 3.921875 19.625 C 3.097656 19.445312 2.34375 19.25 1.65625 19.03125 C 0.976562 18.8125 0.5 18.632812 0.21875 18.5 Z M 2.046875 10.4375 "/></g></g></g></g><g fill="#d18e1b" fill-opacity="1"><g transform="translate(944.043253, 100.865103)"><g/></g></g><g fill="#d18e1b" fill-opacity="1"><g transform="translate(968.891749, 100.865103)"><g><path d="M 54.09375 -9.03125 L 54.09375 0 L 9.25 0 L 9.25 -74.515625 L 19.671875 -74.515625 L 19.671875 -9.03125 Z M 54.09375 -9.03125 "/></g></g></g><g fill="#d18e1b" fill-opacity="1"><g transform="translate(1024.698948, 100.865103)"><g><path d="M 18.609375 0 L 8.609375 0 L 8.609375 -55.921875 L 18.609375 -55.921875 Z M 13.546875 -66.03125 C 11.753906 -66.03125 10.226562 -66.617188 8.96875 -67.796875 C 7.71875 -68.984375 7.09375 -70.578125 7.09375 -72.578125 C 7.09375 -74.585938 7.71875 -76.179688 8.96875 -77.359375 C 10.226562 -78.546875 11.753906 -79.140625 13.546875 -79.140625 C 15.335938 -79.140625 16.859375 -78.546875 18.109375 -77.359375 C 19.367188 -76.179688 20 -74.585938 20 -72.578125 C 20 -70.578125 19.367188 -68.984375 18.109375 -67.796875 C 16.859375 -66.617188 15.335938 -66.03125 13.546875 -66.03125 Z M 13.546875 -66.03125 "/></g></g></g><g fill="#d18e1b" fill-opacity="1"><g transform="translate(1051.903619, 100.865103)"><g><path d="M 8.609375 -54.296875 C 10.898438 -54.867188 13.925781 -55.476562 17.6875 -56.125 C 21.445312 -56.769531 25.800781 -57.09375 30.75 -57.09375 C 34.332031 -57.09375 37.34375 -56.609375 39.78125 -55.640625 C 42.21875 -54.679688 44.265625 -53.269531 45.921875 -51.40625 C 46.421875 -51.757812 47.207031 -52.257812 48.28125 -52.90625 C 49.351562 -53.550781 50.675781 -54.175781 52.25 -54.78125 C 53.832031 -55.394531 55.59375 -55.929688 57.53125 -56.390625 C 59.46875 -56.859375 61.546875 -57.09375 63.765625 -57.09375 C 68.066406 -57.09375 71.578125 -56.460938 74.296875 -55.203125 C 77.023438 -53.953125 79.160156 -52.179688 80.703125 -49.890625 C 82.242188 -47.597656 83.28125 -44.875 83.8125 -41.71875 C 84.351562 -38.5625 84.625 -35.125 84.625 -31.40625 L 84.625 0 L 74.625 0 L 74.625 -29.25 C 74.625 -32.539062 74.460938 -35.367188 74.140625 -37.734375 C 73.816406 -40.109375 73.207031 -42.082031 72.3125 -43.65625 C 71.414062 -45.226562 70.195312 -46.390625 68.65625 -47.140625 C 67.113281 -47.898438 65.125 -48.28125 62.6875 -48.28125 C 59.320312 -48.28125 56.546875 -47.832031 54.359375 -46.9375 C 52.171875 -46.039062 50.679688 -45.234375 49.890625 -44.515625 C 50.460938 -42.648438 50.890625 -40.609375 51.171875 -38.390625 C 51.460938 -36.171875 51.609375 -33.84375 51.609375 -31.40625 L 51.609375 0 L 41.609375 0 L 41.609375 -29.25 C 41.609375 -32.539062 41.429688 -35.367188 41.078125 -37.734375 C 40.722656 -40.109375 40.09375 -42.082031 39.1875 -43.65625 C 38.289062 -45.226562 37.070312 -46.390625 35.53125 -47.140625 C 34 -47.898438 32.046875 -48.28125 29.671875 -48.28125 C 28.671875 -48.28125 27.597656 -48.242188 26.453125 -48.171875 C 25.304688 -48.097656 24.210938 -48.007812 23.171875 -47.90625 C 22.128906 -47.800781 21.175781 -47.675781 20.3125 -47.53125 C 19.457031 -47.382812 18.890625 -47.273438 18.609375 -47.203125 L 18.609375 0 L 8.609375 0 Z M 8.609375 -54.296875 "/></g></g></g><g fill="#d18e1b" fill-opacity="1"><g transform="translate(1144.485515, 100.865103)"><g><path d="M 18.609375 0 L 8.609375 0 L 8.609375 -55.921875 L 18.609375 -55.921875 Z M 13.546875 -66.03125 C 11.753906 -66.03125 10.226562 -66.617188 8.96875 -67.796875 C 7.71875 -68.984375 7.09375 -70.578125 7.09375 -72.578125 C 7.09375 -74.585938 7.71875 -76.179688 8.96875 -77.359375 C 10.226562 -78.546875 11.753906 -79.140625 13.546875 -79.140625 C 15.335938 -79.140625 16.859375 -78.546875 18.109375 -77.359375 C 19.367188 -76.179688 20 -74.585938 20 -72.578125 C 20 -70.578125 19.367188 -68.984375 18.109375 -67.796875 C 16.859375 -66.617188 15.335938 -66.03125 13.546875 -66.03125 Z M 13.546875 -66.03125 "/></g></g></g><g fill="#d18e1b" fill-opacity="1"><g transform="translate(1171.690185, 100.865103)"><g><path d="M 17.953125 -55.921875 L 39.140625 -55.921875 L 39.140625 -47.53125 L 17.953125 -47.53125 L 17.953125 -21.71875 C 17.953125 -18.925781 18.164062 -16.613281 18.59375 -14.78125 C 19.03125 -12.957031 19.675781 -11.523438 20.53125 -10.484375 C 21.394531 -9.441406 22.472656 -8.707031 23.765625 -8.28125 C 25.054688 -7.851562 26.5625 -7.640625 28.28125 -7.640625 C 31.289062 -7.640625 33.707031 -7.976562 35.53125 -8.65625 C 37.363281 -9.332031 38.640625 -9.816406 39.359375 -10.109375 L 41.296875 -1.828125 C 40.285156 -1.328125 38.523438 -0.703125 36.015625 0.046875 C 33.515625 0.804688 30.648438 1.1875 27.421875 1.1875 C 23.617188 1.1875 20.476562 0.703125 18 -0.265625 C 15.53125 -1.234375 13.539062 -2.6875 12.03125 -4.625 C 10.53125 -6.5625 9.472656 -8.941406 8.859375 -11.765625 C 8.253906 -14.597656 7.953125 -17.878906 7.953125 -21.609375 L 7.953125 -71.515625 L 17.953125 -73.234375 Z M 17.953125 -55.921875 "/></g></g></g><g fill="#d18e1b" fill-opacity="1"><g transform="translate(1213.841278, 100.865103)"><g><path d="M 5.484375 -27.84375 C 5.484375 -32.789062 6.195312 -37.109375 7.625 -40.796875 C 9.0625 -44.492188 10.960938 -47.5625 13.328125 -50 C 15.691406 -52.4375 18.414062 -54.265625 21.5 -55.484375 C 24.582031 -56.703125 27.738281 -57.3125 30.96875 -57.3125 C 38.5 -57.3125 44.269531 -54.960938 48.28125 -50.265625 C 52.289062 -45.578125 54.296875 -38.425781 54.296875 -28.8125 C 54.296875 -28.382812 54.296875 -27.828125 54.296875 -27.140625 C 54.296875 -26.460938 54.265625 -25.835938 54.203125 -25.265625 L 15.921875 -25.265625 C 16.347656 -19.460938 18.03125 -15.054688 20.96875 -12.046875 C 23.90625 -9.035156 28.492188 -7.53125 34.734375 -7.53125 C 38.242188 -7.53125 41.195312 -7.832031 43.59375 -8.4375 C 46 -9.050781 47.8125 -9.644531 49.03125 -10.21875 L 50.4375 -1.828125 C 49.21875 -1.179688 47.082031 -0.5 44.03125 0.21875 C 40.988281 0.9375 37.53125 1.296875 33.65625 1.296875 C 28.78125 1.296875 24.566406 0.5625 21.015625 -0.90625 C 17.472656 -2.382812 14.550781 -4.410156 12.25 -6.984375 C 9.957031 -9.566406 8.253906 -12.628906 7.140625 -16.171875 C 6.035156 -19.722656 5.484375 -23.613281 5.484375 -27.84375 Z M 43.875 -33.328125 C 43.945312 -37.847656 42.816406 -41.554688 40.484375 -44.453125 C 38.148438 -47.359375 34.941406 -48.8125 30.859375 -48.8125 C 28.566406 -48.8125 26.539062 -48.363281 24.78125 -47.46875 C 23.03125 -46.570312 21.546875 -45.40625 20.328125 -43.96875 C 19.109375 -42.539062 18.15625 -40.894531 17.46875 -39.03125 C 16.789062 -37.164062 16.34375 -35.265625 16.125 -33.328125 Z M 43.875 -33.328125 "/></g></g></g><g fill="#d18e1b" fill-opacity="1"><g transform="translate(1273.949599, 100.865103)"><g><path d="M 44.734375 -44.09375 C 43.515625 -45.09375 41.753906 -46.054688 39.453125 -46.984375 C 37.160156 -47.921875 34.65625 -48.390625 31.9375 -48.390625 C 29.070312 -48.390625 26.613281 -47.867188 24.5625 -46.828125 C 22.519531 -45.785156 20.851562 -44.347656 19.5625 -42.515625 C 18.28125 -40.691406 17.351562 -38.523438 16.78125 -36.015625 C 16.207031 -33.515625 15.921875 -30.828125 15.921875 -27.953125 C 15.921875 -21.429688 17.53125 -16.394531 20.75 -12.84375 C 23.976562 -9.300781 28.28125 -7.53125 33.65625 -7.53125 C 36.382812 -7.53125 38.660156 -7.65625 40.484375 -7.90625 C 42.316406 -8.15625 43.734375 -8.421875 44.734375 -8.703125 Z M 44.734375 -81.71875 L 54.734375 -83.4375 L 54.734375 -1.609375 C 52.441406 -0.960938 49.503906 -0.316406 45.921875 0.328125 C 42.335938 0.972656 38.210938 1.296875 33.546875 1.296875 C 29.242188 1.296875 25.375 0.613281 21.9375 -0.75 C 18.5 -2.113281 15.5625 -4.050781 13.125 -6.5625 C 10.6875 -9.070312 8.800781 -12.132812 7.46875 -15.75 C 6.144531 -19.375 5.484375 -23.441406 5.484375 -27.953125 C 5.484375 -32.253906 6.035156 -36.195312 7.140625 -39.78125 C 8.253906 -43.363281 9.882812 -46.445312 12.03125 -49.03125 C 14.1875 -51.613281 16.820312 -53.617188 19.9375 -55.046875 C 23.0625 -56.484375 26.628906 -57.203125 30.640625 -57.203125 C 33.867188 -57.203125 36.71875 -56.769531 39.1875 -55.90625 C 41.664062 -55.050781 43.515625 -54.226562 44.734375 -53.4375 Z M 44.734375 -81.71875 "/></g></g></g></g></g></svg>